<svg width="360" height="85" viewBox="0 0 360 85" fill="none" xmlns="http://www.w3.org/2000/svg">
<path d="M131.71 43V30.346H133.438L138.568 38.554H137.578L142.69 30.346H144.418V43H141.988V34.54L142.456 34.684L138.892 40.408H137.236L133.672 34.684L134.158 34.54V43H131.71ZM149.487 43.072L145.851 34.306H148.407L150.819 41.002H149.955L152.457 34.306H155.031L151.161 43.054L149.487 43.072ZM147.075 46.636L149.721 41.038L151.161 43.054L149.577 46.636H147.075ZM159.741 43V34.306H162.099V43H159.741ZM165.411 43V37.87C165.411 37.366 165.249 36.976 164.925 36.7C164.613 36.412 164.223 36.268 163.755 36.268C163.443 36.268 163.161 36.334 162.909 36.466C162.657 36.586 162.459 36.766 162.315 37.006C162.171 37.246 162.099 37.534 162.099 37.87L161.181 37.42C161.181 36.748 161.325 36.166 161.613 35.674C161.913 35.182 162.315 34.804 162.819 34.54C163.323 34.264 163.893 34.126 164.529 34.126C165.129 34.126 165.675 34.264 166.167 34.54C166.659 34.804 167.049 35.182 167.337 35.674C167.625 36.154 167.769 36.736 167.769 37.42V43H165.411ZM171.081 43V37.87C171.081 37.366 170.919 36.976 170.595 36.7C170.283 36.412 169.893 36.268 169.425 36.268C169.125 36.268 168.843 36.334 168.579 36.466C168.327 36.586 168.129 36.766 167.985 37.006C167.841 37.246 167.769 37.534 167.769 37.87L166.419 37.546C166.467 36.85 166.653 36.25 166.977 35.746C167.301 35.23 167.727 34.834 168.255 34.558C168.783 34.27 169.371 34.126 170.019 34.126C170.667 34.126 171.249 34.264 171.765 34.54C172.281 34.804 172.689 35.188 172.989 35.692C173.289 36.196 173.439 36.796 173.439 37.492V43H171.081ZM175.351 43V34.306H177.727V43H175.351ZM176.539 32.902C176.155 32.902 175.837 32.776 175.585 32.524C175.333 32.26 175.207 31.936 175.207 31.552C175.207 31.18 175.333 30.862 175.585 30.598C175.837 30.334 176.155 30.202 176.539 30.202C176.935 30.202 177.253 30.334 177.493 30.598C177.745 30.862 177.871 31.18 177.871 31.552C177.871 31.936 177.745 32.26 177.493 32.524C177.253 32.776 176.935 32.902 176.539 32.902ZM182.803 43.198C182.311 43.198 181.825 43.132 181.345 43C180.877 42.868 180.445 42.688 180.049 42.46C179.653 42.22 179.311 41.932 179.023 41.596L180.427 40.174C180.727 40.51 181.075 40.762 181.471 40.93C181.867 41.098 182.305 41.182 182.785 41.182C183.169 41.182 183.457 41.128 183.649 41.02C183.853 40.912 183.955 40.75 183.955 40.534C183.955 40.294 183.847 40.108 183.631 39.976C183.427 39.844 183.157 39.736 182.821 39.652C182.485 39.556 182.131 39.454 181.759 39.346C181.399 39.226 181.051 39.076 180.715 38.896C180.379 38.704 180.103 38.446 179.887 38.122C179.683 37.786 179.581 37.354 179.581 36.826C179.581 36.274 179.713 35.794 179.977 35.386C180.253 34.978 180.643 34.66 181.147 34.432C181.651 34.204 182.245 34.09 182.929 34.09C183.649 34.09 184.297 34.216 184.873 34.468C185.461 34.72 185.947 35.098 186.331 35.602L184.909 37.024C184.645 36.7 184.345 36.466 184.009 36.322C183.685 36.178 183.331 36.106 182.947 36.106C182.599 36.106 182.329 36.16 182.137 36.268C181.957 36.376 181.867 36.526 181.867 36.718C181.867 36.934 181.969 37.102 182.173 37.222C182.389 37.342 182.665 37.45 183.001 37.546C183.337 37.63 183.685 37.732 184.045 37.852C184.417 37.96 184.765 38.116 185.089 38.32C185.425 38.524 185.695 38.794 185.899 39.13C186.115 39.466 186.223 39.898 186.223 40.426C186.223 41.278 185.917 41.956 185.305 42.46C184.693 42.952 183.859 43.198 182.803 43.198ZM190.802 43.198C190.31 43.198 189.824 43.132 189.344 43C188.876 42.868 188.444 42.688 188.048 42.46C187.652 42.22 187.31 41.932 187.022 41.596L188.426 40.174C188.726 40.51 189.074 40.762 189.47 40.93C189.866 41.098 190.304 41.182 190.784 41.182C191.168 41.182 191.456 41.128 191.648 41.02C191.852 40.912 191.954 40.75 191.954 40.534C191.954 40.294 191.846 40.108 191.63 39.976C191.426 39.844 191.156 39.736 190.82 39.652C190.484 39.556 190.13 39.454 189.758 39.346C189.398 39.226 189.05 39.076 188.714 38.896C188.378 38.704 188.102 38.446 187.886 38.122C187.682 37.786 187.58 37.354 187.58 36.826C187.58 36.274 187.712 35.794 187.976 35.386C188.252 34.978 188.642 34.66 189.146 34.432C189.65 34.204 190.244 34.09 190.928 34.09C191.648 34.09 192.296 34.216 192.872 34.468C193.46 34.72 193.946 35.098 194.33 35.602L192.908 37.024C192.644 36.7 192.344 36.466 192.008 36.322C191.684 36.178 191.33 36.106 190.946 36.106C190.598 36.106 190.328 36.16 190.136 36.268C189.956 36.376 189.866 36.526 189.866 36.718C189.866 36.934 189.968 37.102 190.172 37.222C190.388 37.342 190.664 37.45 191 37.546C191.336 37.63 191.684 37.732 192.044 37.852C192.416 37.96 192.764 38.116 193.088 38.32C193.424 38.524 193.694 38.794 193.898 39.13C194.114 39.466 194.222 39.898 194.222 40.426C194.222 41.278 193.916 41.956 193.304 42.46C192.692 42.952 191.858 43.198 190.802 43.198ZM195.812 43V34.306H198.188V43H195.812ZM197 32.902C196.616 32.902 196.298 32.776 196.046 32.524C195.794 32.26 195.668 31.936 195.668 31.552C195.668 31.18 195.794 30.862 196.046 30.598C196.298 30.334 196.616 30.202 197 30.202C197.396 30.202 197.714 30.334 197.954 30.598C198.206 30.862 198.332 31.18 198.332 31.552C198.332 31.936 198.206 32.26 197.954 32.524C197.714 32.776 197.396 32.902 197 32.902ZM204.362 43.18C203.486 43.18 202.694 42.982 201.986 42.586C201.29 42.178 200.732 41.632 200.312 40.948C199.904 40.252 199.7 39.478 199.7 38.626C199.7 37.774 199.904 37.012 200.312 36.34C200.72 35.656 201.278 35.116 201.986 34.72C202.694 34.312 203.48 34.108 204.344 34.108C205.232 34.108 206.024 34.312 206.72 34.72C207.428 35.116 207.986 35.656 208.394 36.34C208.802 37.012 209.006 37.774 209.006 38.626C209.006 39.478 208.802 40.252 208.394 40.948C207.986 41.632 207.428 42.178 206.72 42.586C206.024 42.982 205.238 43.18 204.362 43.18ZM204.344 40.984C204.788 40.984 205.178 40.888 205.514 40.696C205.862 40.492 206.126 40.216 206.306 39.868C206.498 39.508 206.594 39.1 206.594 38.644C206.594 38.188 206.498 37.786 206.306 37.438C206.114 37.09 205.85 36.82 205.514 36.628C205.178 36.424 204.788 36.322 204.344 36.322C203.912 36.322 203.528 36.424 203.192 36.628C202.856 36.82 202.592 37.09 202.4 37.438C202.208 37.786 202.112 38.188 202.112 38.644C202.112 39.1 202.208 39.508 202.4 39.868C202.592 40.216 202.856 40.492 203.192 40.696C203.528 40.888 203.912 40.984 204.344 40.984ZM216.374 43V38.014C216.374 37.498 216.212 37.078 215.888 36.754C215.564 36.43 215.144 36.268 214.628 36.268C214.292 36.268 213.992 36.34 213.728 36.484C213.464 36.628 213.254 36.832 213.098 37.096C212.954 37.36 212.882 37.666 212.882 38.014L211.964 37.546C211.964 36.862 212.108 36.268 212.396 35.764C212.696 35.248 213.104 34.846 213.62 34.558C214.148 34.27 214.742 34.126 215.402 34.126C216.038 34.126 216.608 34.288 217.112 34.612C217.616 34.924 218.012 35.338 218.3 35.854C218.588 36.358 218.732 36.904 218.732 37.492V43H216.374ZM210.524 43V34.306H212.882V43H210.524ZM223.62 43.198C223.128 43.198 222.642 43.132 222.162 43C221.694 42.868 221.262 42.688 220.866 42.46C220.47 42.22 220.128 41.932 219.84 41.596L221.244 40.174C221.544 40.51 221.892 40.762 222.288 40.93C222.684 41.098 223.122 41.182 223.602 41.182C223.986 41.182 224.274 41.128 224.466 41.02C224.67 40.912 224.772 40.75 224.772 40.534C224.772 40.294 224.664 40.108 224.448 39.976C224.244 39.844 223.974 39.736 223.638 39.652C223.302 39.556 222.948 39.454 222.576 39.346C222.216 39.226 221.868 39.076 221.532 38.896C221.196 38.704 220.92 38.446 220.704 38.122C220.5 37.786 220.398 37.354 220.398 36.826C220.398 36.274 220.53 35.794 220.794 35.386C221.07 34.978 221.46 34.66 221.964 34.432C222.468 34.204 223.062 34.09 223.746 34.09C224.466 34.09 225.114 34.216 225.69 34.468C226.278 34.72 226.764 35.098 227.148 35.602L225.726 37.024C225.462 36.7 225.162 36.466 224.826 36.322C224.502 36.178 224.148 36.106 223.764 36.106C223.416 36.106 223.146 36.16 222.954 36.268C222.774 36.376 222.684 36.526 222.684 36.718C222.684 36.934 222.786 37.102 222.99 37.222C223.206 37.342 223.482 37.45 223.818 37.546C224.154 37.63 224.502 37.732 224.862 37.852C225.234 37.96 225.582 38.116 225.906 38.32C226.242 38.524 226.512 38.794 226.716 39.13C226.932 39.466 227.04 39.898 227.04 40.426C227.04 41.278 226.734 41.956 226.122 42.46C225.51 42.952 224.676 43.198 223.62 43.198Z" fill="white"/>
<path d="M0 0H360V69C360 77.8366 352.837 85 344 85H16C7.16344 85 0 77.8366 0 69V0Z" fill="#01529C"/>
<path d="M331.246 36.4153C331.246 26.9822 327.489 17.9354 320.8 11.2652C314.111 4.59495 305.038 0.847657 295.579 0.847657C286.117 0.845632 277.041 4.59171 270.349 11.2619C263.657 17.932 259.895 26.9799 259.893 36.4153H271.788C271.853 30.1676 274.387 24.1979 278.841 19.8028C283.294 15.4078 289.307 12.9425 295.572 12.9425C301.838 12.9425 307.85 15.4078 312.304 19.8028C316.757 24.1979 319.291 30.1676 319.356 36.4153H271.788C271.853 42.6629 274.387 48.6327 278.841 53.0278C283.294 57.4228 289.307 59.8881 295.572 59.8881C301.838 59.8881 307.85 57.4228 312.304 53.0278C316.757 48.6327 319.291 42.6629 319.356 36.4153H331.246C331.246 45.8484 327.489 54.8952 320.8 61.5654C314.111 68.2356 305.038 71.9829 295.579 71.9829C286.117 71.985 277.041 68.2389 270.349 61.5687C263.657 54.8986 259.895 45.8507 259.893 36.4153H248.003C248.003 48.9954 253.014 61.0602 261.935 69.9557C270.855 78.8512 282.954 83.8486 295.57 83.8486C308.185 83.8486 320.284 78.8512 329.205 69.9557C338.125 61.0602 343.137 48.9954 343.137 36.4153H331.246Z" fill="white" fill-opacity="0.16"/>
</svg>
